<svg
  width="24"
  height="24"
  viewBox="0 0 32 32"
  fill="none"
  xmlns="http://www.w3.org/2000/svg"
>
  <rect
    width="32"
    height="32"
    rx="16"
    fill="#cce9ff"
  />
  <path
    d="M12 14.1693V12.8359C12 10.6293 12.6667 8.83594 16 8.83594C19.3333 8.83594 20 10.6293 20 12.8359V14.1693"
    stroke="#0d6efd"
    stroke-width="1.5"
    stroke-linecap="round"
    stroke-linejoin="round"
  />
  <path
    d="M19.3335 22.1641H12.6668C10.0002 22.1641 9.3335 21.4974 9.3335 18.8307V17.4974C9.3335 14.8307 10.0002 14.1641 12.6668 14.1641H19.3335C22.0002 14.1641 22.6668 14.8307 22.6668 17.4974V18.8307C22.6668 21.4974 22.0002 22.1641 19.3335 22.1641Z"
    stroke="#0d6efd"
    stroke-width="1.5"
    stroke-linecap="round"
    stroke-linejoin="round"
  />
  <path
    d="M18.6641 18.1693H18.6701"
    stroke="#0d6efd"
    stroke-width="1.5"
    stroke-linecap="round"
    stroke-linejoin="round"
  />
  <path
    d="M15.9972 18.1693H16.0031"
    stroke="#0d6efd"
    stroke-width="1.5"
    stroke-linecap="round"
    stroke-linejoin="round"
  />
  <path
    d="M13.3297 18.1693H13.3357"
    stroke="#004299"
    stroke-width="1.5"
    stroke-linecap="round"
    stroke-linejoin="round"
  />
</svg>