<svg
  width="24"
  height="24"
  viewBox="0 0 32 32"
  fill="none"
  xmlns="http://www.w3.org/2000/svg"
>
  <rect
    width="32"
    height="32"
    rx="16"
    fill="#cce9ff"
  />
  <path
    d="M20.3136 18.7226L20.5736 20.8293C20.6402 21.3826 20.0469 21.7693 19.5736 21.4826L16.7802 19.8226C16.4736 19.8226 16.1736 19.8026 15.8802 19.7626C16.3736 19.1826 16.6669 18.4493 16.6669 17.6559C16.6669 15.7626 15.0269 14.2293 13.0002 14.2293C12.2269 14.2293 11.5136 14.4493 10.9202 14.8359C10.9002 14.6693 10.8936 14.5026 10.8936 14.3293C10.8936 11.2959 13.5269 8.83594 16.7802 8.83594C20.0336 8.83594 22.6669 11.2959 22.6669 14.3293C22.6669 16.1293 21.7402 17.7226 20.3136 18.7226Z"
    stroke="#0d6efd"
    stroke-width="1.5"
    stroke-linecap="round"
    stroke-linejoin="round"
  />
  <path
    d="M16.6668 17.6532C16.6668 18.4465 16.3735 19.1799 15.8802 19.7599C15.2202 20.5599 14.1735 21.0732 13.0002 21.0732L11.2602 22.1065C10.9668 22.2865 10.5935 22.0399 10.6335 21.6999L10.8002 20.3866C9.90683 19.7666 9.3335 18.7732 9.3335 17.6532C9.3335 16.4799 9.96017 15.4465 10.9202 14.8332C11.5135 14.4465 12.2268 14.2266 13.0002 14.2266C15.0268 14.2266 16.6668 15.7599 16.6668 17.6532Z"
    stroke="#0d6efd"
    stroke-width="1.5"
    stroke-linecap="round"
    stroke-linejoin="round"
  />
</svg>