<svg
  width="24"
  height="24"
  viewBox="0 0 32 32"
  fill="none"
  xmlns="http://www.w3.org/2000/svg"
>
  <rect
    width="32"
    height="32"
    rx="16"
    fill="#cce9ff"
  />
  <path
    d="M16 17.5C17.1046 17.5 18 16.6046 18 15.5C18 14.3954 17.1046 13.5 16 13.5C14.8954 13.5 14 14.3954 14 15.5C14 16.6046 14.8954 17.5 16 17.5Z"
    stroke="#0d6efd"
    stroke-width="1.5"
    stroke-miterlimit="10"
    stroke-linecap="round"
    stroke-linejoin="round"
  />
  <path
    d="M9.3335 16.0902V14.9169C9.3335 14.2235 9.90016 13.6502 10.6002 13.6502C11.8068 13.6502 12.3002 12.7969 11.6935 11.7502C11.3468 11.1502 11.5535 10.3702 12.1602 10.0235L13.3135 9.36354C13.8402 9.05021 14.5202 9.23687 14.8335 9.76354L14.9068 9.89021C15.5068 10.9369 16.4935 10.9369 17.1002 9.89021L17.1735 9.76354C17.4868 9.23687 18.1668 9.05021 18.6935 9.36354L19.8468 10.0235C20.4535 10.3702 20.6602 11.1502 20.3135 11.7502C19.7068 12.7969 20.2002 13.6502 21.4068 13.6502C22.1002 13.6502 22.6735 14.2169 22.6735 14.9169V16.0902C22.6735 16.7835 22.1068 17.3569 21.4068 17.3569C20.2002 17.3569 19.7068 18.2102 20.3135 19.2569C20.6602 19.8635 20.4535 20.6369 19.8468 20.9835L18.6935 21.6435C18.1668 21.9569 17.4868 21.7702 17.1735 21.2435L17.1002 21.1169C16.5002 20.0702 15.5135 20.0702 14.9068 21.1169L14.8335 21.2435C14.5202 21.7702 13.8402 21.9569 13.3135 21.6435L12.1602 20.9835C11.5535 20.6369 11.3468 19.8569 11.6935 19.2569C12.3002 18.2102 11.8068 17.3569 10.6002 17.3569C9.90016 17.3569 9.3335 16.7835 9.3335 16.0902Z"
    stroke="#0d6efd"
    stroke-width="1.5"
    stroke-miterlimit="10"
    stroke-linecap="round"
    stroke-linejoin="round"
  />
</svg>